<svg data-v-423bf9ae="" xmlns="http://www.w3.org/2000/svg" viewBox="0 0 435.6349923288879 193" class="fontAboveSlogan"><!----><!----><!----><g data-v-423bf9ae="" id="12d0b963-af59-444e-b164-4b882efd57c5" fill="white" transform="matrix(11.288805146575614,0,0,11.288805146575614,-0.22904649208823002,-27.20757166920724)"><path d="M4.06 4.65L4.06 4.65L4.06 4.65Q2.95 6.03 2.46 7.42L2.46 7.42L2.48 7.42L2.48 7.42Q4.42 7.42 4.71 7.43L4.71 7.43L4.71 7.43Q5.00 7.43 5.03 7.41L5.03 7.41L5.03 7.41Q5.05 7.38 5.07 7.34L5.07 7.34L5.07 7.34Q4.83 5.61 4.69 4.99L4.69 4.99L4.69 4.99Q4.55 4.37 4.41 4.37L4.41 4.37L4.41 4.37Q4.27 4.37 4.06 4.65ZM2.81 11.24L2.81 11.24L3.12 11.19L3.12 11.19Q3.26 11.19 3.26 11.34L3.26 11.34L3.26 11.34Q3.26 11.83 3.07 12.17L3.07 12.17L3.07 12.17Q2.87 12.50 2.58 12.64L2.58 12.64L2.58 12.64Q2.10 12.88 1.76 12.88L1.76 12.88L1.76 12.88Q1.12 12.88 0.80 12.40L0.80 12.40L0.80 12.40Q0.48 11.91 0.48 10.94L0.48 10.94L0.48 10.94Q0.48 9.97 1.01 8.41L1.01 8.41L0.20 8.41L0.20 8.41Q0.04 8.41 0.04 8.26L0.04 8.26L0.04 8.26Q0.04 8.11 0.28 7.76L0.28 7.76L0.28 7.76Q0.52 7.42 0.78 7.42L0.78 7.42L1.41 7.42L1.41 7.42Q2.41 5.21 3.75 3.60L3.75 3.60L3.75 3.60Q4.10 3.18 4.61 2.81L4.61 2.81L4.61 2.81Q5.12 2.45 5.40 2.45L5.40 2.45L5.40 2.45Q5.68 2.45 5.82 2.70L5.82 2.70L5.82 2.70Q6.19 3.29 6.68 7L6.68 7L6.68 7Q6.85 8.60 7.26 10.30L7.26 10.30L7.26 10.30Q7.67 12.00 8.02 12.28L8.02 12.28L8.02 12.28Q8.11 12.33 8.11 12.42L8.11 12.42L8.11 12.42Q8.11 12.63 7.51 12.81L7.51 12.81L7.51 12.81Q6.92 12.99 6.60 12.99L6.60 12.99L6.60 12.99Q6.29 12.99 6.12 12.91L6.12 12.91L6.12 12.91Q5.95 12.84 5.91 12.75L5.91 12.75L5.91 12.75Q5.66 12.21 5.40 10.15L5.40 10.15L5.32 9.49L5.32 9.49Q5.26 8.83 5.21 8.50L5.21 8.50L5.11 8.43L2.18 8.41L2.18 8.41Q2.02 9.13 2.02 9.66L2.02 9.66L2.02 9.66Q2.02 10.19 2.05 10.44L2.05 10.44L2.05 10.44Q2.09 10.68 2.28 10.96L2.28 10.96L2.28 10.96Q2.48 11.24 2.81 11.24ZM12.88 11.06L12.88 11.06L12.88 11.06Q12.88 11.86 12.24 12.38L12.24 12.38L12.24 12.38Q11.61 12.91 10.72 12.91L10.72 12.91L10.72 12.91Q9.44 12.91 8.83 12.13L8.83 12.13L8.83 12.13Q8.23 11.35 8.23 10.02L8.23 10.02L8.23 10.02Q8.23 8.61 8.86 7.52L8.86 7.52L8.86 7.52Q9.17 6.96 9.74 6.64L9.74 6.64L9.74 6.64Q10.32 6.31 11.09 6.31L11.09 6.31L11.09 6.31Q12.25 6.31 12.73 7.10L12.73 7.10L12.73 7.10Q12.92 7.42 12.92 7.85L12.92 7.85L12.92 7.85Q12.92 8.53 12.36 8.86L12.36 8.86L12.36 8.86Q12.14 8.99 11.95 8.99L11.95 8.99L11.95 8.99Q11.76 8.99 11.64 8.97L11.64 8.97L11.64 8.97Q11.52 8.95 11.33 8.78L11.33 8.78L11.33 8.78Q11.13 8.61 11.13 8.32L11.13 8.32L11.13 8.32Q11.14 8.16 11.37 8.06L11.37 8.06L11.37 8.06Q11.58 7.94 11.58 7.62L11.58 7.62L11.58 7.62Q11.58 7.07 10.91 7.07L10.91 7.07L10.91 7.07Q10.74 7.07 10.51 7.22L10.51 7.22L10.51 7.22Q10.28 7.36 10.12 7.59L10.12 7.59L10.12 7.59Q9.97 7.83 9.84 8.32L9.84 8.32L9.84 8.32Q9.70 8.82 9.70 9.28L9.70 9.28L9.70 9.28Q9.70 9.73 9.74 9.96L9.74 9.96L9.74 9.96Q9.77 10.19 9.89 10.59L9.89 10.59L9.89 10.59Q10.01 10.99 10.34 11.24L10.34 11.24L10.34 11.24Q10.67 11.49 11.16 11.49L11.16 11.49L11.16 11.49Q11.75 11.49 12.19 11.00L12.19 11.00L12.19 11.00Q12.38 10.81 12.49 10.53L12.49 10.53L12.49 10.53Q12.54 10.42 12.63 10.42L12.63 10.42L12.63 10.42Q12.75 10.42 12.82 10.65L12.82 10.65L12.82 10.65Q12.88 10.88 12.88 11.06ZM13.41 7.21L13.41 7.21L13.45 6.65L13.45 6.65Q13.47 6.52 13.65 6.52L13.65 6.52L14.14 6.52L14.08 5.40L14.08 5.35L14.08 5.35Q14.08 5.03 14.57 4.73L14.57 4.73L14.57 4.73Q15.06 4.44 15.47 4.44L15.47 4.44L15.47 4.44Q15.60 4.44 15.60 4.55L15.60 4.55L15.60 4.56L15.60 4.56Q15.54 4.94 15.48 6.51L15.48 6.51L15.48 6.51Q16.10 6.51 16.27 6.48L16.27 6.48L16.27 6.48Q16.44 6.45 16.45 6.45L16.45 6.45L16.45 6.45Q16.55 6.45 16.55 6.62L16.55 6.62L16.55 6.62Q16.55 6.79 16.39 7.05L16.39 7.05L16.39 7.05Q16.24 7.31 16.06 7.32L16.06 7.32L15.47 7.32L15.47 7.32Q15.46 7.80 15.46 8.93L15.46 8.93L15.46 8.93Q15.46 10.05 15.48 10.78L15.48 10.78L15.48 10.78Q15.50 11.51 15.53 11.88L15.53 11.88L15.53 11.88Q15.55 12.25 15.59 12.47L15.59 12.47L15.59 12.47Q15.62 12.70 15.65 12.80L15.65 12.80L15.65 12.80Q15.67 12.89 15.67 12.92L15.67 12.92L15.67 12.92Q15.67 13.06 15.48 13.08L15.48 13.08L15.48 13.08Q14.94 13.08 14.40 12.92L14.40 12.92L14.40 12.92Q13.86 12.77 13.86 12.39L13.86 12.39L13.86 12.39Q14.15 10.04 14.15 7.34L14.15 7.34L14.15 7.34Q13.78 7.34 13.58 7.36L13.58 7.36L13.57 7.36L13.57 7.36Q13.44 7.36 13.41 7.21ZM18.13 7.39L18.13 7.39L18.13 7.39Q17.77 7.41 17.61 7.41L17.61 7.41L17.61 7.41Q17.44 7.42 17.44 7.34L17.44 7.34L17.44 7.34Q17.44 7.25 17.53 7.17L17.53 7.17L17.53 7.17Q18.42 6.34 20.55 6.34L20.55 6.34L20.55 6.34Q21.28 6.34 21.70 6.47L21.70 6.47L21.84 6.51L21.84 6.51Q22.01 6.58 22.01 6.66L22.01 6.66L22.01 6.66Q22.01 6.73 21.91 6.78L21.91 6.78L21.91 6.78Q21.53 6.89 21.18 7.13L21.18 7.13L21.18 7.13Q20.83 7.38 20.83 7.48L20.83 7.48L20.92 7.57L20.92 7.57Q21.36 7.83 21.61 8.37L21.61 8.37L21.61 8.37Q21.85 8.92 21.88 9.34L21.88 9.34L21.91 9.77L21.91 9.77Q21.91 11.16 21.14 12.05L21.14 12.05L21.14 12.05Q20.37 12.95 19.04 12.95L19.04 12.95L19.04 12.95Q18.37 12.95 17.88 12.71L17.88 12.71L17.88 12.71Q17.39 12.47 17.16 12.17L17.16 12.17L17.16 12.17Q16.93 11.87 16.79 11.49L16.79 11.49L16.79 11.49Q16.62 10.98 16.62 10.42L16.62 10.42L16.62 10.42Q16.62 9.87 16.81 9.31L16.81 9.31L16.81 9.31Q17.00 8.75 17.24 8.48L17.24 8.48L17.24 8.48Q17.49 8.22 17.79 8.05L17.79 8.05L17.79 8.05Q18.19 7.84 18.42 7.84L18.42 7.84L18.42 7.84Q18.66 7.84 18.66 7.94L18.66 7.94L18.58 8.08L18.58 8.08Q18.27 8.44 18.14 9.03L18.14 9.03L18.14 9.03Q18.00 9.62 18.00 10.07L18.00 10.07L18.00 10.07Q18.00 10.53 18.12 10.98L18.12 10.98L18.12 10.98Q18.23 11.42 18.37 11.64L18.37 11.64L18.37 11.64Q18.51 11.86 18.69 11.97L18.69 11.97L18.69 11.97Q18.96 12.14 19.25 12.14L19.25 12.14L19.25 12.14Q19.54 12.14 19.82 11.91L19.82 11.91L19.82 11.91Q20.10 11.68 20.23 11.30L20.23 11.30L20.23 11.30Q20.48 10.60 20.48 9.86L20.48 9.86L20.48 9.86Q20.48 8.68 19.89 8.04L19.89 8.04L19.89 8.04Q19.29 7.39 18.13 7.39ZM26.84 7.85L26.77 8.92L26.82 9.41L26.82 9.41Q26.82 9.67 26.32 9.67L26.32 9.67L26.32 9.67Q25.30 9.67 25.30 8.90L25.30 8.90L25.30 8.90Q25.30 8.72 25.40 8.40L25.40 8.40L25.40 8.40Q25.49 8.08 25.49 7.84L25.49 7.84L25.49 7.84Q25.49 7.60 25.35 7.43L25.35 7.43L25.35 7.43Q25.21 7.25 24.95 7.25L24.95 7.25L24.95 7.25Q24.68 7.25 24.49 7.44L24.49 7.44L24.49 7.44Q24.30 7.63 24.26 7.83L24.26 7.83L24.21 8.02L24.21 8.02Q24.12 8.46 24.12 9.47L24.12 9.47L24.12 9.47Q24.12 10.49 24.15 11.07L24.15 11.07L24.15 11.07Q24.18 11.65 24.21 11.87L24.21 11.87L24.21 11.87Q24.23 12.08 24.23 12.12L24.23 12.12L24.23 12.12Q24.23 12.47 23.80 12.69L23.80 12.69L23.80 12.69Q23.37 12.91 22.93 12.91L22.93 12.91L22.93 12.91Q22.50 12.91 22.50 12.73L22.50 12.73L22.57 12.29L22.57 12.29Q22.76 11.07 22.76 9.11L22.76 9.11L22.76 9.11Q22.76 7.15 22.62 6.45L22.62 6.45L22.62 6.45Q22.62 6.29 22.92 6.29L22.92 6.29L22.92 6.29Q23.67 6.29 23.93 6.80L23.93 6.80L23.93 6.80Q23.94 6.86 23.97 6.86L23.97 6.86L23.97 6.86Q24.01 6.86 24.16 6.73L24.16 6.73L24.16 6.73Q24.63 6.36 25.26 6.36L25.26 6.36L25.26 6.36Q25.65 6.36 26.04 6.51L26.04 6.51L26.04 6.51Q26.84 6.83 26.84 7.85L26.84 7.85ZM28.66 12.68L28.66 12.68L28.32 12.70L28.32 12.70Q27.99 12.70 27.87 12.56L27.87 12.56L27.87 12.56Q27.76 12.42 27.75 12.03L27.75 12.03L27.75 12.03Q27.75 11.65 27.93 11.48L27.93 11.48L27.93 11.48Q28.11 11.31 28.55 11.31L28.55 11.31L28.55 11.31Q28.98 11.31 29.18 11.47L29.18 11.47L29.18 11.47Q29.39 11.63 29.39 12.00L29.39 12.00L29.39 12.00Q29.39 12.91 29.20 12.91L29.20 12.91L29.13 12.87L29.13 12.87Q29.04 12.68 28.66 12.68ZM32.41 4.66L32.41 4.66L32.33 9.80L32.33 9.80Q32.33 12.21 32.48 12.68L32.48 12.68L32.48 12.68Q32.52 12.77 32.52 12.85L32.52 12.85L32.52 12.85Q32.52 13.02 32.12 13.02L32.12 13.02L32.12 13.02Q31.71 13.02 31.21 12.82L31.21 12.82L31.21 12.82Q30.72 12.61 30.72 12.29L30.72 12.29L30.72 12.29Q31.00 10.33 31.00 7.06L31.00 7.06L30.94 4.91L30.94 4.91Q30.91 4.52 30.78 4.24L30.78 4.24L30.78 4.24Q30.65 3.96 30.52 3.88L30.52 3.88L30.41 3.81L30.41 3.81Q30.31 3.75 30.31 3.68L30.31 3.68L30.31 3.68Q30.31 3.49 30.92 3.20L30.92 3.20L30.92 3.20Q31.53 2.91 32.10 2.91L32.10 2.91L32.10 2.91Q32.33 2.91 32.35 3.07L32.35 3.07L32.35 3.07Q32.41 3.43 32.41 4.66ZM36.39 8.13L36.39 8.13L36.39 8.13Q36.33 8.19 36.33 8.25L36.33 8.25L36.33 8.25Q36.33 8.32 36.59 8.37L36.59 8.37L36.59 8.37Q36.85 8.43 37.16 8.68L37.16 8.68L37.16 8.68Q37.46 8.93 37.62 9.23L37.62 9.23L37.62 9.23Q37.91 9.80 37.94 10.23L37.94 10.23L37.95 10.42L37.95 10.42Q38.02 12.05 38.56 12.66L38.56 12.66L38.56 12.66Q38.63 12.75 38.63 12.80L38.63 12.80L38.63 12.80Q38.63 12.95 38.23 12.95L38.23 12.95L38.23 12.95Q37.06 12.95 36.74 12.46L36.74 12.46L36.74 12.46Q36.57 12.26 36.57 11.24L36.57 11.24L36.57 10.89L36.57 10.89Q36.57 9.59 36.25 9.09L36.25 9.09L36.25 9.09Q36.08 8.85 35.83 8.85L35.83 8.85L35.83 8.85Q35.59 8.85 35.32 9.28L35.32 9.28L35.32 9.28Q35.06 9.70 35.06 10.00L35.06 10.00L35.06 10.00Q35.06 11.17 35.11 11.63L35.11 11.63L35.11 11.63Q35.17 12.10 35.17 12.11L35.17 12.11L35.17 12.11Q35.17 12.52 34.62 12.74L34.62 12.74L34.62 12.74Q34.06 12.96 33.57 12.96L33.57 12.96L33.57 12.96Q33.39 12.96 33.39 12.74L33.39 12.74L33.39 12.68L33.39 12.68Q33.73 10.96 33.73 7.25L33.73 7.25L33.73 7.25Q33.73 6.03 33.67 5.19L33.67 5.19L33.64 4.91L33.64 4.91Q33.61 4.52 33.48 4.24L33.48 4.24L33.48 4.24Q33.35 3.96 33.22 3.88L33.22 3.88L33.11 3.81L33.11 3.81Q33.01 3.75 33.01 3.68L33.01 3.68L33.01 3.68Q33.01 3.46 33.68 3.18L33.68 3.18L33.68 3.18Q34.36 2.90 34.85 2.90L34.85 2.90L34.85 2.90Q35.07 2.91 35.08 3.07L35.08 3.07L35.08 3.07Q35.15 3.63 35.15 5.37L35.15 5.37L35.15 5.37Q35.15 7.11 35.07 8.15L35.07 8.15L35.07 8.15Q35.07 8.32 35.13 8.32L35.13 8.32L35.13 8.32Q35.18 8.32 35.30 8.16L35.30 8.16L35.30 8.16Q35.42 7.99 35.72 7.64L35.72 7.64L35.72 7.64Q36.02 7.29 36.53 6.83L36.53 6.83L36.53 6.83Q37.04 6.37 37.36 6.37L37.36 6.37L37.36 6.37Q37.67 6.37 37.98 6.52L37.98 6.52L37.98 6.52Q38.29 6.68 38.29 6.82L38.29 6.82L38.14 6.92L38.14 6.92Q37.34 7.21 36.39 8.13Z"></path></g><!----><!----><g data-v-423bf9ae="" id="a3f14354-acd2-40c7-83cc-319072d7c55c" fill="white" transform="matrix(4.137931034482759,0,0,4.137931034482759,9.638185547343596,122.90344565490196)"><path d="M4.09 3.68L4.09 3.68L4.09 3.68Q3.58 3.68 3.25 4.05L3.25 4.05L3.25 4.05Q2.66 4.69 2.66 5.68L2.66 5.68L2.66 5.68Q2.66 6.66 3.16 6.86L3.16 6.86L3.16 6.86Q3.29 6.90 3.29 7.04L3.29 7.04L3.29 7.04Q3.29 7.46 3.01 7.75L3.01 7.75L3.01 7.75Q2.73 8.04 2.32 8.09L2.32 8.09L2.32 8.09Q2.20 8.09 2.20 8.19L2.20 8.19L2.20 8.19Q2.18 8.34 2.18 8.63L2.18 8.63L2.18 8.63Q2.18 8.92 2.21 9.26L2.21 9.26L2.21 9.26Q2.24 9.60 2.35 10.07L2.35 10.07L2.35 10.07Q2.45 10.54 2.63 10.88L2.63 10.88L2.63 10.88Q2.80 11.23 3.13 11.47L3.13 11.47L3.13 11.47Q3.46 11.72 3.98 11.72L3.98 11.72L3.98 11.72Q4.51 11.72 4.93 11.30L4.93 11.30L4.93 11.30Q5.35 10.88 5.52 10.21L5.52 10.21L5.52 10.21Q5.82 9.03 5.82 7.94L5.82 7.94L5.82 7.94Q5.82 6.86 5.68 6.03L5.68 6.03L5.68 6.03Q5.54 5.21 5.36 4.77L5.36 4.77L5.36 4.77Q5.17 4.34 4.90 4.07L4.90 4.07L4.90 4.07Q4.63 3.81 4.45 3.74L4.45 3.74L4.45 3.74Q4.27 3.68 4.09 3.68ZM1.54 5.07L1.54 5.07L1.60 4.98L1.60 4.98Q1.74 4.34 2.05 3.87L2.05 3.87L2.05 3.87Q2.37 3.40 2.68 3.17L2.68 3.17L2.68 3.17Q3.00 2.94 3.39 2.81L3.39 2.81L3.39 2.81Q3.91 2.65 4.30 2.65L4.30 2.65L4.30 2.65Q5.24 2.65 5.92 3.08L5.92 3.08L5.92 3.08Q6.59 3.51 6.94 4.26L6.94 4.26L6.94 4.26Q7.59 5.67 7.59 7.46L7.59 7.46L7.59 7.46Q7.59 10.47 6.19 11.84L6.19 11.84L6.19 11.84Q5.50 12.52 4.68 12.75L4.68 12.75L4.68 12.75Q4.16 12.91 3.68 12.91L3.68 12.91L3.68 12.91Q1.93 12.91 1.11 11.71L1.11 11.71L1.11 11.71Q0.28 10.51 0.28 8.68L0.28 8.68L0.28 8.68Q0.28 7.62 0.46 6.73L0.46 6.73L0.46 6.73Q0.64 5.84 0.84 5.47L0.84 5.47L1.02 5.11L1.02 5.11Q1.08 4.98 1.20 4.98L1.20 4.98L1.20 4.98Q1.33 4.98 1.39 5.00L1.39 5.00L1.39 5.00Q1.46 5.03 1.49 5.05L1.49 5.05L1.49 5.05Q1.53 5.07 1.54 5.07ZM8.43 10.53L8.43 10.53L8.43 10.53Q8.46 9.11 8.46 8.20L8.46 8.20L8.46 8.20Q8.46 7.29 8.33 6.47L8.33 6.47L8.33 6.47Q8.33 6.33 8.61 6.33L8.61 6.33L8.61 6.33Q8.89 6.33 9.09 6.40L9.09 6.40L9.09 6.40Q9.30 6.47 9.38 6.55L9.38 6.55L9.38 6.55Q9.60 6.78 9.64 6.78L9.64 6.78L9.64 6.78Q9.67 6.78 9.86 6.65L9.86 6.65L9.86 6.65Q10.40 6.30 11.07 6.30L11.07 6.30L11.07 6.30Q11.73 6.30 12.23 6.64L12.23 6.64L12.23 6.64Q12.73 6.97 12.94 7.52L12.94 7.52L12.94 7.52Q13.31 8.46 13.31 9.51L13.31 9.51L13.31 9.51Q13.31 10.54 12.94 11.58L12.94 11.58L12.94 11.58Q12.73 12.14 12.32 12.49L12.32 12.49L12.32 12.49Q11.91 12.85 11.37 12.85L11.37 12.85L11.37 12.85Q10.29 12.85 10.29 11.61L10.29 11.61L10.29 11.61Q10.29 11.27 10.43 11.27L10.43 11.27L10.43 11.27Q10.46 11.27 10.59 11.33L10.59 11.33L10.59 11.33Q10.72 11.40 10.85 11.40L10.85 11.40L10.85 11.40Q11.84 11.40 11.84 9.29L11.84 9.29L11.84 9.29Q11.84 7.18 10.78 7.18L10.78 7.18L10.78 7.18Q10.49 7.18 10.28 7.31L10.28 7.31L10.28 7.31Q10.08 7.45 10.02 7.57L10.02 7.57L9.97 7.71L9.97 7.71Q9.77 8.97 9.77 12.57L9.77 12.57L9.77 12.57Q9.77 14.20 9.84 14.90L9.84 14.90L9.84 14.90Q9.90 15.61 9.90 15.75L9.90 15.75L9.90 15.75Q9.90 15.89 9.81 16.00L9.81 16.00L9.81 16.00Q9.53 16.37 9.06 16.65L9.06 16.65L9.06 16.65Q8.58 16.94 8.22 16.94L8.22 16.94L8.22 16.94Q8.08 16.94 8.08 16.76L8.08 16.76L8.08 16.76Q8.30 15.34 8.43 10.53ZM15.33 9.11L15.33 9.11L15.34 9.46L15.34 9.46Q15.34 9.55 15.46 9.55L15.46 9.55L15.46 9.55Q15.90 9.51 16.24 9.32L16.24 9.32L16.24 9.32Q16.58 9.13 16.74 8.89L16.74 8.89L16.74 8.89Q17.08 8.37 17.11 7.99L17.11 7.99L17.12 7.83L17.12 7.83Q17.12 7.07 16.52 7.07L16.52 7.07L16.52 7.07Q16.07 7.07 15.79 7.46L15.79 7.46L15.79 7.46Q15.33 8.08 15.33 9.11ZM18.38 10.98L18.38 10.98L18.38 10.98Q18.38 11.51 18.16 11.91L18.16 11.91L18.16 11.91Q17.95 12.31 17.68 12.49L17.68 12.49L17.68 12.49Q17.40 12.68 17.04 12.80L17.04 12.80L17.04 12.80Q16.58 12.94 16.16 12.94L16.16 12.94L16.16 12.94Q14.98 12.94 14.42 12.05L14.42 12.05L14.42 12.05Q13.86 11.17 13.86 9.81L13.86 9.81L13.86 9.81Q13.86 8.44 14.55 7.38L14.55 7.38L14.55 7.38Q15.25 6.31 16.63 6.31L16.63 6.31L16.63 6.31Q17.89 6.31 18.34 7.20L18.34 7.20L18.34 7.20Q18.52 7.53 18.52 7.83L18.52 7.83L18.52 7.83Q18.52 8.13 18.49 8.31L18.49 8.31L18.49 8.31Q18.47 8.48 18.30 8.83L18.30 8.83L18.30 8.83Q18.13 9.18 17.85 9.46L17.85 9.46L17.85 9.46Q17.57 9.74 16.97 10.00L16.97 10.00L16.97 10.00Q16.37 10.25 15.55 10.33L15.55 10.33L15.55 10.33Q15.44 10.33 15.44 10.43L15.44 10.43L15.44 10.43Q15.44 10.56 15.53 10.80L15.53 10.80L15.53 10.80Q15.62 11.05 15.74 11.21L15.74 11.21L15.74 11.21Q16.04 11.61 16.65 11.61L16.65 11.61L16.65 11.61Q17.25 11.61 17.67 11.21L17.67 11.21L17.67 11.21Q17.89 11.00 18.03 10.70L18.03 10.70L18.03 10.70Q18.09 10.58 18.18 10.58L18.18 10.58L18.18 10.58Q18.27 10.58 18.33 10.74L18.33 10.74L18.33 10.74Q18.38 10.89 18.38 10.98ZM19.15 12.77L19.15 12.77L19.15 12.77Q19.40 11.26 19.40 9.14L19.40 9.14L19.40 9.14Q19.40 7.03 19.28 6.40L19.28 6.40L19.28 6.40Q19.28 6.22 19.70 6.22L19.70 6.22L19.70 6.22Q20.34 6.22 20.55 6.71L20.55 6.71L20.55 6.71Q20.57 6.75 20.62 6.75L20.62 6.75L20.62 6.75Q20.68 6.75 20.71 6.72L20.71 6.72L20.71 6.72Q21.14 6.27 22.05 6.27L22.05 6.27L22.05 6.27Q22.96 6.27 23.49 6.73L23.49 6.73L23.49 6.73Q24.02 7.20 24.02 8.08L24.02 8.08L24.02 8.08Q24.02 8.61 23.93 9.59L23.93 9.59L23.93 9.59Q23.84 10.57 23.84 11.05L23.84 11.05L23.84 11.05Q23.84 12.18 24.22 12.68L24.22 12.68L24.22 12.68Q24.28 12.75 24.28 12.82L24.28 12.82L24.28 12.82Q24.28 13.01 23.88 13.01L23.88 13.01L23.88 13.01Q22.15 13.01 22.15 11.47L22.15 11.47L22.15 11.47Q22.15 10.88 22.41 9.83L22.41 9.83L22.41 9.83Q22.68 8.78 22.68 8.23L22.68 8.23L22.68 8.23Q22.68 7.11 21.76 7.11L21.76 7.11L21.76 7.11Q21.31 7.11 21.08 7.38L21.08 7.38L21.08 7.38Q20.85 7.64 20.82 7.99L20.82 7.99L20.82 7.99Q20.79 8.33 20.79 9.28L20.79 9.28L20.79 9.28Q20.79 10.74 20.89 11.82L20.89 11.82L20.92 12.12L20.92 12.12Q20.92 12.52 20.41 12.73L20.41 12.73L20.41 12.73Q19.89 12.95 19.52 12.95L19.52 12.95L19.52 12.95Q19.15 12.95 19.15 12.77ZM27.05 7.21L27.05 7.21L27.09 6.65L27.09 6.65Q27.10 6.52 27.29 6.52L27.29 6.52L27.78 6.52L27.72 5.40L27.72 5.35L27.72 5.35Q27.72 5.03 28.21 4.73L28.21 4.73L28.21 4.73Q28.70 4.44 29.11 4.44L29.11 4.44L29.11 4.44Q29.23 4.44 29.23 4.55L29.23 4.55L29.23 4.56L29.23 4.56Q29.18 4.94 29.12 6.51L29.12 6.51L29.12 6.51Q29.74 6.51 29.90 6.48L29.90 6.48L29.90 6.48Q30.07 6.45 30.09 6.45L30.09 6.45L30.09 6.45Q30.18 6.45 30.18 6.62L30.18 6.62L30.18 6.62Q30.18 6.79 30.03 7.05L30.03 7.05L30.03 7.05Q29.88 7.31 29.69 7.32L29.69 7.32L29.11 7.32L29.11 7.32Q29.09 7.80 29.09 8.93L29.09 8.93L29.09 8.93Q29.09 10.05 29.11 10.78L29.11 10.78L29.11 10.78Q29.13 11.51 29.16 11.88L29.16 11.88L29.16 11.88Q29.19 12.25 29.22 12.47L29.22 12.47L29.22 12.47Q29.26 12.70 29.28 12.80L29.28 12.80L29.28 12.80Q29.30 12.89 29.30 12.92L29.30 12.92L29.30 12.92Q29.30 13.06 29.12 13.08L29.12 13.08L29.12 13.08Q28.57 13.08 28.03 12.92L28.03 12.92L28.03 12.92Q27.50 12.77 27.50 12.39L27.50 12.39L27.50 12.39Q27.79 10.04 27.79 7.34L27.79 7.34L27.79 7.34Q27.41 7.34 27.22 7.36L27.22 7.36L27.20 7.36L27.20 7.36Q27.08 7.36 27.05 7.21ZM31.77 7.39L31.77 7.39L31.77 7.39Q31.40 7.41 31.24 7.41L31.24 7.41L31.24 7.41Q31.08 7.42 31.08 7.34L31.08 7.34L31.08 7.34Q31.08 7.25 31.16 7.17L31.16 7.17L31.16 7.17Q32.06 6.34 34.19 6.34L34.19 6.34L34.19 6.34Q34.92 6.34 35.34 6.47L35.34 6.47L35.48 6.51L35.48 6.51Q35.64 6.58 35.64 6.66L35.64 6.66L35.64 6.66Q35.64 6.73 35.55 6.78L35.55 6.78L35.55 6.78Q35.17 6.89 34.82 7.13L34.82 7.13L34.82 7.13Q34.47 7.38 34.47 7.48L34.47 7.48L34.55 7.57L34.55 7.57Q35 7.83 35.24 8.37L35.24 8.37L35.24 8.37Q35.49 8.92 35.52 9.34L35.52 9.34L35.55 9.77L35.55 9.77Q35.55 11.16 34.78 12.05L34.78 12.05L34.78 12.05Q34.01 12.95 32.68 12.95L32.68 12.95L32.68 12.95Q32.00 12.95 31.51 12.71L31.51 12.71L31.51 12.71Q31.02 12.47 30.79 12.17L30.79 12.17L30.79 12.17Q30.56 11.87 30.42 11.49L30.42 11.49L30.42 11.49Q30.25 10.98 30.25 10.42L30.25 10.42L30.25 10.42Q30.25 9.87 30.44 9.31L30.44 9.31L30.44 9.31Q30.63 8.75 30.88 8.48L30.88 8.48L30.88 8.48Q31.12 8.22 31.43 8.05L31.43 8.05L31.43 8.05Q31.82 7.84 32.06 7.84L32.06 7.84L32.06 7.84Q32.30 7.84 32.30 7.94L32.30 7.94L32.21 8.08L32.21 8.08Q31.91 8.44 31.77 9.03L31.77 9.03L31.77 9.03Q31.64 9.62 31.64 10.07L31.64 10.07L31.64 10.07Q31.64 10.53 31.75 10.98L31.75 10.98L31.75 10.98Q31.86 11.42 32.00 11.64L32.00 11.64L32.00 11.64Q32.14 11.86 32.33 11.97L32.33 11.97L32.33 11.97Q32.59 12.14 32.89 12.14L32.89 12.14L32.89 12.14Q33.18 12.14 33.46 11.91L33.46 11.91L33.46 11.91Q33.74 11.68 33.87 11.30L33.87 11.30L33.87 11.30Q34.12 10.60 34.12 9.86L34.12 9.86L34.12 9.86Q34.12 8.68 33.52 8.04L33.52 8.04L33.52 8.04Q32.93 7.39 31.77 7.39ZM39.89 2.70L39.89 2.70L41.90 2.81L41.90 2.81Q43.25 2.81 43.83 2.49L43.83 2.49L43.83 2.49Q43.92 2.44 43.98 2.44L43.98 2.44L43.98 2.44Q44.04 2.44 44.04 2.63L44.04 2.63L44.04 2.63Q44.04 2.83 43.81 3.28L43.81 3.28L43.81 3.28Q43.46 3.96 42.80 3.96L42.80 3.96L42.03 3.95L42.03 3.95Q41.92 3.95 41.89 4.07L41.89 4.07L41.89 4.07Q41.79 6.13 41.79 8.52L41.79 8.52L41.79 8.52Q41.79 10.91 41.99 12.11L41.99 12.11L41.99 12.18L41.99 12.18Q41.99 12.53 41.32 12.74L41.32 12.74L41.32 12.74Q40.66 12.95 40.07 12.95L40.07 12.95L40.07 12.95Q39.79 12.95 39.79 12.80L39.79 12.80L39.79 12.80Q39.79 12.75 39.83 12.60L39.83 12.60L39.83 12.60Q39.98 12.29 40.10 9.62L40.10 9.62L40.10 9.62Q40.22 6.94 40.22 5.59L40.22 5.59L40.19 4.06L40.19 4.06Q40.19 3.98 40.11 3.96L40.11 3.96L40.11 3.96Q39.82 3.91 39.44 3.91L39.44 3.91L39.44 3.91Q38.68 3.91 38.32 4.21L38.32 4.21L38.32 4.21Q38.22 4.28 38.13 4.28L38.13 4.28L38.13 4.28Q38.04 4.28 38.04 4.17L38.04 4.17L38.04 4.17Q38.04 4.00 38.21 3.71L38.21 3.71L38.21 3.71Q38.39 3.42 38.58 3.21L38.58 3.21L38.58 3.21Q39.06 2.70 39.89 2.70ZM45.77 5.15L45.77 5.15L45.75 6.51L45.75 6.51Q45.75 6.59 45.81 6.59L45.81 6.59L45.81 6.59Q45.86 6.59 45.92 6.55L45.92 6.55L45.92 6.55Q46.27 6.31 47.03 6.31L47.03 6.31L47.03 6.31Q48.30 6.31 48.79 7.18L48.79 7.18L48.79 7.18Q48.97 7.50 48.97 8.04L48.97 8.04L48.97 8.04Q48.97 8.57 48.91 9.51L48.91 9.51L48.91 9.51Q48.85 10.44 48.85 10.84L48.85 10.84L48.85 10.84Q48.85 12.21 49.24 12.66L49.24 12.66L49.24 12.66Q49.31 12.73 49.31 12.80L49.31 12.80L49.31 12.80Q49.31 12.94 48.71 12.94L48.71 12.94L48.71 12.94Q47.08 12.94 47.08 11.42L47.08 11.42L47.08 11.42Q47.08 10.84 47.36 9.77L47.36 9.77L47.36 9.77Q47.64 8.71 47.64 8.20L47.64 8.20L47.64 8.20Q47.64 7.70 47.40 7.43L47.40 7.43L47.40 7.43Q47.17 7.15 46.75 7.15L46.75 7.15L46.75 7.15Q46.33 7.15 46.08 7.34L46.08 7.34L46.08 7.34Q45.84 7.52 45.78 7.71L45.78 7.71L45.74 7.90L45.74 7.90Q45.72 8.16 45.72 9.59L45.72 9.59L45.72 9.59Q45.72 11.02 45.79 11.45L45.79 11.45L45.79 11.45Q45.86 11.87 45.86 11.93L45.86 11.93L45.86 11.93Q45.86 12.33 45.32 12.65L45.32 12.65L45.32 12.65Q44.77 12.96 44.24 12.96L44.24 12.96L44.24 12.96Q44.04 12.96 44.04 12.74L44.04 12.74L44.07 12.47L44.07 12.47Q44.38 10.12 44.38 7.38L44.38 7.38L44.38 7.38Q44.38 6.31 44.30 5.22L44.30 5.22L44.28 4.91L44.28 4.91Q44.25 4.52 44.12 4.24L44.12 4.24L44.12 4.24Q43.99 3.96 43.88 3.88L43.88 3.88L43.75 3.81L43.75 3.81Q43.65 3.75 43.65 3.68L43.65 3.68L43.65 3.68Q43.65 3.49 44.31 3.20L44.31 3.20L44.31 3.20Q44.97 2.91 45.33 2.91L45.33 2.91L45.33 2.91Q45.68 2.91 45.71 3.07L45.71 3.07L45.71 3.07Q45.77 3.78 45.77 5.15ZM51.06 9.11L51.06 9.11L51.07 9.46L51.07 9.46Q51.07 9.55 51.18 9.55L51.18 9.55L51.18 9.55Q51.63 9.51 51.97 9.32L51.97 9.32L51.97 9.32Q52.30 9.13 52.47 8.89L52.47 8.89L52.47 8.89Q52.81 8.37 52.84 7.99L52.84 7.99L52.85 7.83L52.85 7.83Q52.85 7.07 52.25 7.07L52.25 7.07L52.25 7.07Q51.80 7.07 51.52 7.46L51.52 7.46L51.52 7.46Q51.06 8.08 51.06 9.11ZM54.11 10.98L54.11 10.98L54.11 10.98Q54.11 11.51 53.89 11.91L53.89 11.91L53.89 11.91Q53.68 12.31 53.40 12.49L53.40 12.49L53.40 12.49Q53.13 12.68 52.77 12.80L52.77 12.80L52.77 12.80Q52.30 12.94 51.88 12.94L51.88 12.94L51.88 12.94Q50.71 12.94 50.15 12.05L50.15 12.05L50.15 12.05Q49.59 11.17 49.59 9.81L49.59 9.81L49.59 9.81Q49.59 8.44 50.28 7.38L50.28 7.38L50.28 7.38Q50.97 6.31 52.36 6.31L52.36 6.31L52.36 6.31Q53.62 6.31 54.07 7.20L54.07 7.20L54.07 7.20Q54.25 7.53 54.25 7.83L54.25 7.83L54.25 7.83Q54.25 8.13 54.22 8.31L54.22 8.31L54.22 8.31Q54.19 8.48 54.03 8.83L54.03 8.83L54.03 8.83Q53.86 9.18 53.58 9.46L53.58 9.46L53.58 9.46Q53.30 9.74 52.70 10.00L52.70 10.00L52.70 10.00Q52.09 10.25 51.28 10.33L51.28 10.33L51.28 10.33Q51.17 10.33 51.17 10.43L51.17 10.43L51.17 10.43Q51.17 10.56 51.26 10.80L51.26 10.80L51.26 10.80Q51.35 11.05 51.46 11.21L51.46 11.21L51.46 11.21Q51.77 11.61 52.37 11.61L52.37 11.61L52.37 11.61Q52.98 11.61 53.40 11.21L53.40 11.21L53.40 11.21Q53.62 11.00 53.76 10.70L53.76 10.70L53.76 10.70Q53.82 10.58 53.91 10.58L53.91 10.58L53.91 10.58Q54.00 10.58 54.05 10.74L54.05 10.74L54.05 10.74Q54.11 10.89 54.11 10.98ZM61.04 4.65L61.04 4.65L61.04 4.65Q59.93 6.03 59.44 7.42L59.44 7.42L59.46 7.42L59.46 7.42Q61.40 7.42 61.69 7.43L61.69 7.43L61.69 7.43Q61.98 7.43 62.01 7.41L62.01 7.41L62.01 7.41Q62.03 7.38 62.05 7.34L62.05 7.34L62.05 7.34Q61.81 5.61 61.67 4.99L61.67 4.99L61.67 4.99Q61.53 4.37 61.39 4.37L61.39 4.37L61.39 4.37Q61.25 4.37 61.04 4.65ZM59.79 11.24L59.79 11.24L60.10 11.19L60.10 11.19Q60.24 11.19 60.24 11.34L60.24 11.34L60.24 11.34Q60.24 11.83 60.05 12.17L60.05 12.17L60.05 12.17Q59.85 12.50 59.56 12.64L59.56 12.64L59.56 12.64Q59.08 12.88 58.74 12.88L58.74 12.88L58.74 12.88Q58.10 12.88 57.78 12.40L57.78 12.40L57.78 12.40Q57.46 11.91 57.46 10.94L57.46 10.94L57.46 10.94Q57.46 9.97 57.99 8.41L57.99 8.41L57.18 8.41L57.18 8.41Q57.02 8.41 57.02 8.26L57.02 8.26L57.02 8.26Q57.02 8.11 57.26 7.76L57.26 7.76L57.26 7.76Q57.50 7.42 57.76 7.42L57.76 7.42L58.39 7.42L58.39 7.42Q59.39 5.21 60.73 3.60L60.73 3.60L60.73 3.60Q61.08 3.18 61.59 2.81L61.59 2.81L61.59 2.81Q62.10 2.45 62.38 2.45L62.38 2.45L62.38 2.45Q62.66 2.45 62.80 2.70L62.80 2.70L62.80 2.70Q63.17 3.29 63.66 7L63.66 7L63.66 7Q63.83 8.60 64.24 10.30L64.24 10.30L64.24 10.30Q64.65 12.00 65.00 12.28L65.00 12.28L65.00 12.28Q65.09 12.33 65.09 12.42L65.09 12.42L65.09 12.42Q65.09 12.63 64.49 12.81L64.49 12.81L64.49 12.81Q63.90 12.99 63.58 12.99L63.58 12.99L63.58 12.99Q63.27 12.99 63.10 12.91L63.10 12.91L63.10 12.91Q62.93 12.84 62.89 12.75L62.89 12.75L62.89 12.75Q62.64 12.21 62.38 10.15L62.38 10.15L62.30 9.49L62.30 9.49Q62.24 8.83 62.19 8.50L62.19 8.50L62.09 8.43L59.16 8.41L59.16 8.41Q59.00 9.13 59.00 9.66L59.00 9.66L59.00 9.66Q59.00 10.19 59.03 10.44L59.03 10.44L59.03 10.44Q59.07 10.68 59.26 10.96L59.26 10.96L59.26 10.96Q59.46 11.24 59.79 11.24ZM70.38 6.44L70.38 6.44L70.38 6.44Q70.13 7.95 70.13 10.29L70.13 10.29L70.13 10.29Q70.13 12.01 70.27 12.56L70.27 12.56L70.32 12.74L70.32 12.74Q70.32 12.92 70.01 12.92L70.01 12.92L70.01 12.92Q68.94 12.92 68.78 12.32L68.78 12.32L68.78 12.32Q68.77 12.25 68.72 12.25L68.72 12.25L68.72 12.25Q68.67 12.25 68.63 12.31L68.63 12.31L68.63 12.31Q68.19 12.88 67.28 12.88L67.28 12.88L67.28 12.88Q66.78 12.88 66.23 12.63L66.23 12.63L66.23 12.63Q65.90 12.47 65.69 12.09L65.69 12.09L65.69 12.09Q65.48 11.70 65.48 11.14L65.48 11.14L65.69 8.08L65.69 8.08Q65.69 7.11 65.49 6.71L65.49 6.71L65.49 6.71Q65.42 6.55 65.42 6.51L65.42 6.51L65.42 6.51Q65.42 6.43 65.49 6.40L65.49 6.40L65.49 6.40Q65.72 6.33 66.07 6.33L66.07 6.33L66.07 6.33Q67.42 6.33 67.42 7.45L67.42 7.45L67.42 7.45Q67.42 7.80 67.14 9.04L67.14 9.04L67.14 9.04Q66.85 10.29 66.85 10.81L66.85 10.81L66.85 10.81Q66.85 11.34 67.08 11.62L67.08 11.62L67.08 11.62Q67.31 11.90 67.73 11.90L67.73 11.90L67.73 11.90Q68.14 11.90 68.38 11.61L68.38 11.61L68.38 11.61Q68.61 11.31 68.66 11.02L68.66 11.02L68.70 10.72L68.70 10.72Q68.75 10.23 68.75 9.00L68.75 9.00L68.75 9.00Q68.75 7.77 68.68 7.44L68.68 7.44L68.68 7.44Q68.60 7.11 68.60 7.03L68.60 7.03L68.60 7.03Q68.60 6.68 69.16 6.47L69.16 6.47L69.16 6.47Q69.72 6.27 70.17 6.27L70.17 6.27L70.17 6.27Q70.38 6.27 70.38 6.44ZM73.85 6.38L73.85 6.38L73.85 6.38Q74.10 6.38 74.31 6.45L74.31 6.45L74.31 6.45Q74.51 6.51 74.52 6.51L74.52 6.51L74.61 6.44L74.55 4.91L74.55 4.91Q74.52 4.52 74.38 4.24L74.38 4.24L74.38 4.24Q74.24 3.96 74.13 3.88L74.13 3.88L74.00 3.81L74.00 3.81Q73.92 3.75 73.92 3.68L73.92 3.68L73.92 3.68Q73.92 3.47 74.57 3.19L74.57 3.19L74.57 3.19Q75.22 2.91 75.59 2.91L75.59 2.91L75.59 2.91Q75.95 2.91 75.98 3.07L75.98 3.07L75.98 3.07Q76.05 3.54 76.05 4.88L76.05 4.88L76.05 4.88Q76.05 6.22 75.99 7.50L75.99 7.50L75.99 7.50Q75.92 8.79 75.92 10.42L75.92 10.42L75.92 10.42Q75.92 12.05 76.13 12.47L76.13 12.47L76.13 12.47Q76.19 12.57 76.19 12.66L76.19 12.66L76.19 12.66Q76.19 12.87 75.59 12.87L75.59 12.87L75.59 12.87Q74.44 12.87 74.44 12.32L74.44 12.32L74.44 12.32Q74.41 12.10 74.41 11.63L74.41 11.63L74.41 11.63Q74.41 11.16 74.50 9.88L74.50 9.88L74.50 9.88Q74.59 8.60 74.59 7.90L74.59 7.90L74.59 7.90Q74.59 7.21 73.90 7.21L73.90 7.21L73.90 7.21Q73.21 7.21 72.84 8.02L72.84 8.02L72.84 8.02Q72.48 8.83 72.48 9.65L72.48 9.65L72.48 9.65Q72.48 11.37 73.35 11.37L73.35 11.37L73.35 11.37Q73.47 11.37 73.59 11.32L73.59 11.32L73.59 11.32Q73.71 11.27 73.74 11.27L73.74 11.27L73.74 11.27Q73.85 11.27 73.91 11.41L73.91 11.41L73.91 11.41Q73.98 11.55 73.98 11.69L73.98 11.69L73.98 11.69Q73.98 12.17 73.60 12.49L73.60 12.49L73.60 12.49Q73.22 12.82 72.67 12.82L72.67 12.82L72.67 12.82Q71.83 12.82 71.41 12.09L71.41 12.09L71.41 12.09Q70.98 11.35 70.98 10.26L70.98 10.26L70.98 10.26Q70.98 8.88 71.64 7.69L71.64 7.69L71.64 7.69Q71.97 7.10 72.55 6.74L72.55 6.74L72.55 6.74Q73.12 6.38 73.85 6.38ZM78.26 5.18L78.26 5.18L77.92 5.17L77.92 5.17Q77.55 5.17 77.43 5.35L77.43 5.35L77.43 5.35Q77.41 5.39 77.36 5.39L77.36 5.39L77.36 5.39Q77.18 5.39 77.18 4.77L77.18 4.77L77.18 4.77Q77.18 4.14 77.37 3.98L77.37 3.98L77.37 3.98Q77.56 3.81 78.03 3.81L78.03 3.81L78.03 3.81Q78.50 3.81 78.67 3.97L78.67 3.97L78.67 3.97Q78.83 4.13 78.83 4.51L78.83 4.51L78.83 4.51Q78.83 4.89 78.71 5.03L78.71 5.03L78.71 5.03Q78.58 5.18 78.26 5.18ZM77.14 12.25L77.14 12.25L77.29 8.99L77.29 8.99Q77.29 7.83 77.03 7.41L77.03 7.41L77.03 7.41Q76.94 7.27 76.83 7.20L76.83 7.20L76.83 7.20Q76.75 7.17 76.75 7.08L76.75 7.08L76.75 7.08Q76.75 6.83 77.46 6.59L77.46 6.59L77.46 6.59Q78.18 6.36 78.51 6.36L78.51 6.36L78.51 6.36Q78.83 6.36 78.85 6.52L78.85 6.52L78.85 6.52Q78.85 6.80 78.77 8.11L78.77 8.11L78.77 8.11Q78.69 9.42 78.69 10.86L78.69 10.86L78.69 10.86Q78.69 12.31 78.86 12.66L78.86 12.66L78.86 12.66Q78.90 12.73 78.90 12.80L78.90 12.80L78.90 12.80Q78.90 12.98 78.37 12.98L78.37 12.98L78.37 12.98Q77.84 12.98 77.28 12.70L77.28 12.70L77.28 12.70Q77.14 12.63 77.14 12.25ZM81.09 9.11L81.09 9.11L81.10 9.46L81.10 9.46Q81.10 9.55 81.21 9.55L81.21 9.55L81.21 9.55Q81.66 9.51 82.00 9.32L82.00 9.32L82.00 9.32Q82.33 9.13 82.50 8.89L82.50 8.89L82.50 8.89Q82.84 8.37 82.87 7.99L82.87 7.99L82.88 7.83L82.88 7.83Q82.88 7.07 82.28 7.07L82.28 7.07L82.28 7.07Q81.83 7.07 81.55 7.46L81.55 7.46L81.55 7.46Q81.09 8.08 81.09 9.11ZM84.14 10.98L84.14 10.98L84.14 10.98Q84.14 11.51 83.92 11.91L83.92 11.91L83.92 11.91Q83.71 12.31 83.43 12.49L83.43 12.49L83.43 12.49Q83.16 12.68 82.80 12.80L82.80 12.80L82.80 12.80Q82.33 12.94 81.91 12.94L81.91 12.94L81.91 12.94Q80.74 12.94 80.18 12.05L80.18 12.05L80.18 12.05Q79.62 11.17 79.62 9.81L79.62 9.81L79.62 9.81Q79.62 8.44 80.31 7.38L80.31 7.38L80.31 7.38Q81.00 6.31 82.39 6.31L82.39 6.31L82.39 6.31Q83.65 6.31 84.10 7.20L84.10 7.20L84.10 7.20Q84.28 7.53 84.28 7.83L84.28 7.83L84.28 7.83Q84.28 8.13 84.25 8.31L84.25 8.31L84.25 8.31Q84.22 8.48 84.06 8.83L84.06 8.83L84.06 8.83Q83.89 9.18 83.61 9.46L83.61 9.46L83.61 9.46Q83.33 9.74 82.73 10.00L82.73 10.00L82.73 10.00Q82.12 10.25 81.31 10.33L81.31 10.33L81.31 10.33Q81.20 10.33 81.20 10.43L81.20 10.43L81.20 10.43Q81.20 10.56 81.29 10.80L81.29 10.80L81.29 10.80Q81.38 11.05 81.49 11.21L81.49 11.21L81.49 11.21Q81.80 11.61 82.40 11.61L82.40 11.61L82.40 11.61Q83.01 11.61 83.43 11.21L83.43 11.21L83.43 11.21Q83.65 11.00 83.79 10.70L83.79 10.70L83.79 10.70Q83.85 10.58 83.94 10.58L83.94 10.58L83.94 10.58Q84.03 10.58 84.08 10.74L84.08 10.74L84.08 10.74Q84.14 10.89 84.14 10.98ZM84.91 12.77L84.91 12.77L84.91 12.77Q85.16 11.26 85.16 9.14L85.16 9.14L85.16 9.14Q85.16 7.03 85.04 6.40L85.04 6.40L85.04 6.40Q85.04 6.22 85.46 6.22L85.46 6.22L85.46 6.22Q86.10 6.22 86.31 6.71L86.31 6.71L86.31 6.71Q86.32 6.75 86.38 6.75L86.38 6.75L86.38 6.75Q86.44 6.75 86.46 6.72L86.46 6.72L86.46 6.72Q86.90 6.27 87.81 6.27L87.81 6.27L87.81 6.27Q88.72 6.27 89.25 6.73L89.25 6.73L89.25 6.73Q89.78 7.20 89.78 8.08L89.78 8.08L89.78 8.08Q89.78 8.61 89.69 9.59L89.69 9.59L89.69 9.59Q89.60 10.57 89.60 11.05L89.60 11.05L89.60 11.05Q89.60 12.18 89.98 12.68L89.98 12.68L89.98 12.68Q90.03 12.75 90.03 12.82L90.03 12.82L90.03 12.82Q90.03 13.01 89.64 13.01L89.64 13.01L89.64 13.01Q87.91 13.01 87.91 11.47L87.91 11.47L87.91 11.47Q87.91 10.88 88.17 9.83L88.17 9.83L88.17 9.83Q88.44 8.78 88.44 8.23L88.44 8.23L88.44 8.23Q88.44 7.11 87.51 7.11L87.51 7.11L87.51 7.11Q87.07 7.11 86.84 7.38L86.84 7.38L86.84 7.38Q86.60 7.64 86.58 7.99L86.58 7.99L86.58 7.99Q86.55 8.33 86.55 9.28L86.55 9.28L86.55 9.28Q86.55 10.74 86.65 11.82L86.65 11.82L86.67 12.12L86.67 12.12Q86.67 12.52 86.16 12.73L86.16 12.73L86.16 12.73Q85.65 12.95 85.28 12.95L85.28 12.95L85.28 12.95Q84.91 12.95 84.91 12.77ZM95.07 11.06L95.07 11.06L95.07 11.06Q95.07 11.86 94.44 12.38L94.44 12.38L94.44 12.38Q93.80 12.91 92.92 12.91L92.92 12.91L92.92 12.91Q91.63 12.91 91.03 12.13L91.03 12.13L91.03 12.13Q90.43 11.35 90.43 10.02L90.43 10.02L90.43 10.02Q90.43 8.61 91.06 7.52L91.06 7.52L91.06 7.52Q91.36 6.96 91.94 6.64L91.94 6.64L91.94 6.64Q92.51 6.31 93.28 6.31L93.28 6.31L93.28 6.31Q94.44 6.31 94.92 7.10L94.92 7.10L94.92 7.10Q95.12 7.42 95.12 7.85L95.12 7.85L95.12 7.85Q95.12 8.53 94.56 8.86L94.56 8.86L94.56 8.86Q94.33 8.99 94.14 8.99L94.14 8.99L94.14 8.99Q93.95 8.99 93.84 8.97L93.84 8.97L93.84 8.97Q93.72 8.95 93.52 8.78L93.52 8.78L93.52 8.78Q93.32 8.61 93.32 8.32L93.32 8.32L93.32 8.32Q93.34 8.16 93.56 8.06L93.56 8.06L93.56 8.06Q93.77 7.94 93.77 7.62L93.77 7.62L93.77 7.62Q93.77 7.07 93.10 7.07L93.10 7.07L93.10 7.07Q92.93 7.07 92.70 7.22L92.70 7.22L92.70 7.22Q92.47 7.36 92.32 7.59L92.32 7.59L92.32 7.59Q92.16 7.83 92.03 8.32L92.03 8.32L92.03 8.32Q91.90 8.82 91.90 9.28L91.90 9.28L91.90 9.28Q91.90 9.73 91.93 9.96L91.93 9.96L91.93 9.96Q91.97 10.19 92.09 10.59L92.09 10.59L92.09 10.59Q92.20 10.99 92.53 11.24L92.53 11.24L92.53 11.24Q92.86 11.49 93.35 11.49L93.35 11.49L93.35 11.49Q93.94 11.49 94.39 11.00L94.39 11.00L94.39 11.00Q94.57 10.81 94.68 10.53L94.68 10.53L94.68 10.53Q94.74 10.42 94.82 10.42L94.82 10.42L94.82 10.42Q94.95 10.42 95.01 10.65L95.01 10.65L95.01 10.65Q95.07 10.88 95.07 11.06ZM97.15 9.11L97.15 9.11L97.16 9.46L97.16 9.46Q97.16 9.55 97.27 9.55L97.27 9.55L97.27 9.55Q97.72 9.51 98.06 9.32L98.06 9.32L98.06 9.32Q98.39 9.13 98.56 8.89L98.56 8.89L98.56 8.89Q98.90 8.37 98.92 7.99L98.92 7.99L98.94 7.83L98.94 7.83Q98.94 7.07 98.34 7.07L98.34 7.07L98.34 7.07Q97.89 7.07 97.61 7.46L97.61 7.46L97.61 7.46Q97.15 8.08 97.15 9.11ZM100.20 10.98L100.20 10.98L100.20 10.98Q100.20 11.51 99.98 11.91L99.98 11.91L99.98 11.91Q99.76 12.31 99.49 12.49L99.49 12.49L99.49 12.49Q99.22 12.68 98.85 12.80L98.85 12.80L98.85 12.80Q98.39 12.94 97.97 12.94L97.97 12.94L97.97 12.94Q96.80 12.94 96.24 12.05L96.24 12.05L96.24 12.05Q95.68 11.17 95.68 9.81L95.68 9.81L95.68 9.81Q95.68 8.44 96.37 7.38L96.37 7.38L96.37 7.38Q97.06 6.31 98.45 6.31L98.45 6.31L98.45 6.31Q99.71 6.31 100.16 7.20L100.16 7.20L100.16 7.20Q100.34 7.53 100.34 7.83L100.34 7.83L100.34 7.83Q100.34 8.13 100.31 8.31L100.31 8.31L100.31 8.31Q100.28 8.48 100.11 8.83L100.11 8.83L100.11 8.83Q99.95 9.18 99.67 9.46L99.67 9.46L99.67 9.46Q99.39 9.74 98.78 10.00L98.78 10.00L98.78 10.00Q98.18 10.25 97.37 10.33L97.37 10.33L97.37 10.33Q97.26 10.33 97.26 10.43L97.26 10.43L97.26 10.43Q97.26 10.56 97.35 10.80L97.35 10.80L97.35 10.80Q97.44 11.05 97.55 11.21L97.55 11.21L97.55 11.21Q97.86 11.61 98.46 11.61L98.46 11.61L98.46 11.61Q99.06 11.61 99.48 11.21L99.48 11.21L99.48 11.21Q99.71 11.00 99.85 10.70L99.85 10.70L99.85 10.70Q99.90 10.58 100.00 10.58L100.00 10.58L100.00 10.58Q100.09 10.58 100.14 10.74L100.14 10.74L100.14 10.74Q100.20 10.89 100.20 10.98Z"></path></g></svg>